<svg width="61" height="24" viewBox="0 0 61 24" fill="none" xmlns="http://www.w3.org/2000/svg">
<path d="M12.12 2.264C12.9093 3.24533 13.816 4.51466 14.84 6.072C15.864 7.608 16.5787 8.632 16.984 9.144C17.3893 9.656 17.7093 9.912 17.944 9.912C18.2 9.912 18.424 9.77333 18.616 9.496C18.808 9.21867 19.512 8.152 20.728 6.296C21.944 4.44 22.9467 3.032 23.736 2.072C24.5253 1.09067 25.1547 0.589332 25.624 0.567999C26.0933 0.546666 26.7013 0.535999 27.448 0.535999C28.1947 0.535999 29.0693 0.557332 30.072 0.599998C31.0747 0.642666 31.736 0.909333 32.056 1.4C32.3973 1.86933 32.6 2.54133 32.664 3.416C32.792 5.656 32.856 8.632 32.856 12.344C32.856 16.0347 32.76 18.9467 32.568 21.08C32.5253 21.592 32.3333 22.0507 31.992 22.456C31.6507 22.8613 31.1813 23.064 30.584 23.064C29.2827 23.0853 27.832 23.096 26.232 23.096C24.6533 23.096 23.3947 23.064 22.456 23C22.1147 22.9787 21.8053 22.8507 21.528 22.616C21.272 22.36 21.1333 22.0293 21.112 21.624L20.92 16.344C20.8987 15.832 20.7813 15.544 20.568 15.48C20.376 15.416 20.1947 15.5547 20.024 15.896C18.8933 17.9013 17.4853 20.1413 15.8 22.616C15.3947 23.2347 14.8613 23.544 14.2 23.544C13.5387 23.544 12.9947 23.2347 12.568 22.616C11.8213 21.5493 10.552 19.288 8.76 15.832C8.65333 15.6187 8.52533 15.4907 8.376 15.448C8.248 15.4053 8.13067 15.4587 8.024 15.608C7.91733 15.7573 7.864 16.0027 7.864 16.344L7.704 21.624C7.68267 22.0293 7.50133 22.36 7.16 22.616C6.81867 22.8507 6.424 22.9787 5.976 23H2.808C2.232 22.9787 1.76267 22.776 1.4 22.392C1.05867 22.008 0.856 21.5707 0.792 21.08C0.621333 19.1813 0.536 16.2373 0.536 12.248C0.536 8.23733 0.589333 5.29333 0.696 3.416C0.76 2.52 0.962667 1.82667 1.304 1.336C1.64533 0.845332 2.25333 0.599998 3.128 0.599998C7.608 0.599998 10.0293 0.631999 10.392 0.695999C10.7547 0.76 11.3307 1.28267 12.12 2.264ZM33.9493 14.84C33.4586 14.84 33.2133 14.3493 33.2133 13.368C33.2133 12.3653 33.3306 11.7253 33.5653 11.448C33.8213 11.1493 34.2266 10.9467 34.7813 10.84L35.2933 10.744C35.2933 7.45867 35.3359 5.176 35.4213 3.896C35.5279 2.616 35.7306 1.752 36.0293 1.304C36.3279 0.834665 36.9146 0.599998 37.7893 0.599998L46.3653 0.599998C47.2613 0.599998 47.8479 0.834665 48.1253 1.304C48.4239 1.77333 48.6053 2.52 48.6693 3.544C48.7333 4.54667 48.7653 6.01867 48.7653 7.96L49.5333 7.8C49.8106 7.75733 50.0559 7.74667 50.2693 7.768C50.7813 7.78933 51.0373 8.29067 51.0373 9.272C51.0373 10.2533 50.9093 10.8933 50.6533 11.192C50.4186 11.4693 50.0239 11.6613 49.4693 11.768L48.7333 11.928V14.712C48.7333 15.6507 48.8719 16.3547 49.1493 16.824C49.4479 17.272 50.0559 17.496 50.9733 17.496H59.0693C60.0506 17.5173 60.5413 18.264 60.5413 19.736C60.5413 20.8667 60.4026 21.688 60.1253 22.2C59.8479 22.712 59.2826 22.9787 58.4293 23C55.4213 23.0853 52.4453 23.128 49.5013 23.128C46.5573 23.128 42.8026 23.1067 38.2373 23.064C37.4693 23.064 36.8399 22.8827 36.3493 22.52C35.8799 22.136 35.6133 21.6133 35.5493 20.952C35.3786 19.0747 35.2933 16.984 35.2933 14.68L34.7173 14.776C34.4399 14.8187 34.1839 14.84 33.9493 14.84Z" fill="#008EDA"/>
</svg>
