<svg width="48" height="48" viewBox="0 0 48 48" fill="none" xmlns="http://www.w3.org/2000/svg">
<g clip-path="url(#clip0_203_6)">
<g filter="url(#filter0_d_203_6)">
<mask id="mask0_203_6" style="mask-type:alpha" maskUnits="userSpaceOnUse" x="0" y="0" width="48" height="48">
<rect width="48" height="48" fill="#8F8FE8"/>
</mask>
<g mask="url(#mask0_203_6)">
<path d="M0.201177 20.3531L0.201177 15.5834L15.8118 0L20.5899 0L0.201177 20.3531ZM0 9.25206L0 4.37377L4.38212 0L9.26894 0L0 9.25206ZM34.1591 9.0301C33.7609 8.63972 33.3438 8.25663 32.9075 7.88082C32.4713 7.505 32.0106 7.17452 31.5254 6.88937L38.4268 0L43.2049 0L34.1591 9.0301ZM4.344 34.0234L11.4628 26.917C11.7376 27.3797 12.0108 27.7954 12.2824 28.1642C12.5539 28.5325 12.8562 28.8775 13.1894 29.1993L10.1647 31.476C9.24518 31.7866 8.304 32.1532 7.34118 32.576C6.37835 32.9988 5.37929 33.4812 4.344 34.0234ZM38.1939 16.2929V16.3204C38.1939 16.3383 38.1939 16.3383 38.1939 16.3204C38.0998 15.7097 37.9586 15.0908 37.7704 14.4637C37.5821 13.837 37.3358 13.2472 37.0313 12.6943L48 1.74472V6.53141L38.1939 16.2929ZM22.1104 5.01359L27.1059 0L31.884 0L26.6442 5.2574C26.1445 5.09486 25.6567 4.97295 25.1809 4.89168C24.7047 4.81041 24.2024 4.76978 23.6739 4.76978C23.4245 4.78763 23.1593 4.81911 22.8784 4.86421C22.5979 4.90977 22.3419 4.95957 22.1104 5.01359ZM0 31.8981L0 27.1283L9.58376 17.5613C9.52965 17.8183 9.47976 18.0759 9.43412 18.3343C9.38894 18.5927 9.36635 18.832 9.36635 19.0523C9.36635 19.5799 9.3953 20.0884 9.45318 20.5779C9.51106 21.0679 9.64518 21.5475 9.85553 22.0168L0 31.8981ZM43.3842 33.7852C42.892 33.431 42.3753 33.139 41.8341 32.9093C41.2929 32.6801 40.7381 32.4515 40.1696 32.2237L48 24.4077V29.1775L43.3842 33.7852ZM36.4722 29.4107C36.2261 29.1613 35.9737 28.9182 35.7148 28.6814C35.456 28.4446 35.1854 28.2107 34.9031 27.9796C35.6993 27.2533 36.3699 26.4366 36.9148 25.5295C37.4598 24.6224 37.9348 23.672 38.34 22.6785L48 13.0628V17.9031L36.4722 29.4107ZM24 29.2698C21.2744 29.2698 18.9459 28.3058 17.0146 26.3779C15.0833 24.45 14.1176 22.1256 14.1176 19.4047C14.1176 16.6838 15.0833 14.3594 17.0146 12.4314C18.9459 10.5035 21.2744 9.53956 24 9.53956C26.7256 9.53956 29.0541 10.5035 30.9854 12.4314C32.9167 14.3594 33.8824 16.6838 33.8824 19.4047C33.8824 22.1256 32.9167 24.45 30.9854 26.3779C29.0541 28.3058 26.7256 29.2698 24 29.2698ZM24 26.0714C25.8678 26.0714 27.4478 25.4264 28.74 24.1364C30.0322 22.8464 30.6784 21.2692 30.6784 19.4047C30.6784 17.5402 30.0322 15.9629 28.74 14.6729C27.4478 13.383 25.8678 12.738 24 12.738C22.1322 12.738 20.5522 13.383 19.26 14.6729C17.9678 15.9629 17.3216 17.5402 17.3216 19.4047C17.3216 21.2692 17.9678 22.8464 19.26 24.1364C20.5522 25.4264 22.1322 26.0714 24 26.0714ZM2.82353 49V44.5121C2.82353 43.0591 3.20094 41.7555 3.95576 40.6013C4.71059 39.4466 5.71247 38.5531 6.96141 37.9208C9.62165 36.6017 12.388 35.5889 15.2605 34.8823C18.1329 34.1763 21.0461 33.8232 24 33.8232C26.9539 33.8232 29.8671 34.1763 32.7395 34.8823C35.612 35.5889 38.3784 36.6017 41.0386 37.9208C42.2696 38.5352 43.2671 39.4287 44.0308 40.6013C44.7946 41.7738 45.1765 43.0774 45.1765 44.5121V49H2.82353ZM6.02753 45.8016H41.9725C41.9908 44.6093 41.8235 43.5885 41.4706 42.7392C41.1176 41.8903 40.4687 41.2364 39.5238 40.7774C37.1638 39.6462 34.6969 38.7372 32.1233 38.0504C29.5492 37.3641 26.8414 37.0209 24 37.0209C21.1586 37.0209 18.4508 37.3641 15.8767 38.0504C13.3031 38.7372 10.8362 39.6462 8.47623 40.7774C7.54965 41.2364 6.90518 41.8903 6.54282 42.7392C6.18094 43.5885 6.00918 44.6093 6.02753 45.8016Z" fill="#8F8FE6"/>
</g>
</g>
</g>
<defs>
<filter id="filter0_d_203_6" x="-4" y="0" width="56" height="56" filterUnits="userSpaceOnUse" color-interpolation-filters="sRGB">
<feFlood flood-opacity="0" result="BackgroundImageFix"/>
<feColorMatrix in="SourceAlpha" type="matrix" values="0 0 0 0 0 0 0 0 0 0 0 0 0 0 0 0 0 0 127 0" result="hardAlpha"/>
<feOffset dy="4"/>
<feGaussianBlur stdDeviation="2"/>
<feComposite in2="hardAlpha" operator="out"/>
<feColorMatrix type="matrix" values="0 0 0 0 0 0 0 0 0 0 0 0 0 0 0 0 0 0 0.25 0"/>
<feBlend mode="normal" in2="BackgroundImageFix" result="effect1_dropShadow_203_6"/>
<feBlend mode="normal" in="SourceGraphic" in2="effect1_dropShadow_203_6" result="shape"/>
</filter>
<clipPath id="clip0_203_6">
<rect width="48" height="48" fill="white"/>
</clipPath>
</defs>
</svg>
